<svg width="144" height="199" viewBox="0 0 144 199" fill="none" xmlns="http://www.w3.org/2000/svg">
    <g clip-path="url(#clip0_44_6369)">
        <path d="M136 85.3049V100.812C135.712 102.379 135.438 103.948 135.176 105.519C134.935 106.97 134.719 108.544 134.53 110.244C134.051 114.549 133.573 118.852 133.096 123.156C133.018 123.86 132.841 124.539 132.567 125.192C131.735 127.179 131.092 128.71 130.638 129.787C130.598 129.882 130.533 129.953 130.443 130.002C129.657 130.412 128.868 130.82 128.075 131.227C127.512 131.517 126.605 131.763 125.353 131.965C122.06 132.494 118.139 133.13 113.591 133.874C113.583 133.876 113.377 133.888 112.975 133.91C112.691 133.924 112.415 133.979 112.145 134.071C111.434 134.315 110.412 134.466 109.078 134.525C108.975 134.529 108.891 134.571 108.827 134.652C106.351 137.814 103.15 141.867 99.2242 146.81C99.029 147.056 98.6586 147.45 98.1132 147.993C98.0662 148.04 98.0291 148.096 98.0037 148.156C97.9783 148.218 97.9653 148.283 97.9653 148.35V152.192C97.9653 152.237 97.9556 152.283 97.9368 152.324C97.918 152.365 97.8907 152.402 97.8566 152.431C97.5044 152.739 97.285 152.96 97.1985 153.093C96.8 153.699 96.5756 153.617 96.5253 152.848L96.3894 150.74C96.3532 150.179 96.1902 150.123 95.9004 150.57C95.8924 150.584 95.8863 150.747 95.8823 151.057C95.8682 152.038 95.831 152.892 95.7706 153.623C95.6981 154.48 95.4042 155.206 94.889 155.804C94.573 156.171 94.405 156.11 94.3849 155.62L94.228 151.693C94.2278 151.68 94.2244 151.667 94.2184 151.656C94.2122 151.644 94.2036 151.635 94.1929 151.627C94.1823 151.619 94.1701 151.614 94.1573 151.613C94.1445 151.611 94.1314 151.612 94.1192 151.617L93.9864 151.663C93.9437 151.677 93.9063 151.703 93.8793 151.739C93.8524 151.775 93.8371 151.818 93.8355 151.862C93.7832 153.306 93.7469 154.702 93.7268 156.049C93.7208 156.396 93.5215 156.937 93.1291 157.674C93.0788 157.769 93.0023 157.833 92.8997 157.867L91.9517 158.185C91.9086 158.2 91.8627 158.203 91.8182 158.195C91.7738 158.187 91.7325 158.168 91.6981 158.139C91.043 157.595 90.4211 157.101 90.4211 156.125C90.4211 155.114 90.3859 154.137 90.3155 153.193C90.2832 152.755 90.1605 152.728 89.9472 153.111C89.8968 153.2 89.8687 153.402 89.8627 153.72C89.8364 154.998 89.8114 156.205 89.7872 157.341C89.7771 157.712 89.7228 157.974 89.6242 158.127C89.4692 158.367 89.3263 158.606 89.1954 158.844C89.0446 159.116 88.7115 159.321 88.1962 159.456C87.4616 159.647 86.5298 159.85 85.4008 160.063C85.2439 160.093 85.0825 160.088 84.9278 160.048C84.7731 160.009 84.6288 159.936 84.5048 159.835C84.3807 159.734 84.28 159.607 84.2095 159.464C84.139 159.32 84.1005 159.161 84.0966 159.001L83.994 154.352C83.99 154.182 83.9195 154.099 83.7826 154.101H83.7736C83.6145 154.103 83.5351 154.183 83.5351 154.343C83.5351 156.148 83.5029 157.789 83.4385 159.265C83.4264 159.568 83.1668 159.994 82.6596 160.544C82.5812 160.627 82.4855 160.677 82.3728 160.695L80.788 160.955C80.7306 160.965 80.6719 160.958 80.6181 160.936C80.5644 160.915 80.5176 160.879 80.483 160.831L79.2211 159.107C79.0521 158.873 78.9615 158.613 78.9494 158.327C78.9273 157.837 78.9112 156.796 78.9011 155.204C78.8981 154.814 78.7864 154.446 78.6958 154.074C78.6918 154.011 78.6858 153.95 78.6778 153.889C78.6637 153.95 78.6465 154.009 78.6264 154.068C78.4493 154.584 78.3628 154.964 78.3667 155.207C78.3869 156.325 78.3688 157.42 78.3124 158.49C78.3047 158.656 78.2409 158.817 78.1313 158.944L76.326 161.004C76.3033 161.031 76.2751 161.052 76.2432 161.067C76.2115 161.081 76.1768 161.089 76.1419 161.088H73.1924C72.79 161.088 72.5887 160.887 72.5887 160.484V154.811C72.5887 154.477 72.4236 154.337 72.0936 154.391L71.7826 154.439C71.5351 154.482 71.4113 154.628 71.4113 154.878V160.408C71.4113 160.864 71.1829 161.091 70.726 161.091H67.8852C67.7947 161.091 67.7203 161.058 67.6619 160.992L65.9622 159.046C65.753 158.809 65.6473 158.529 65.6453 158.209C65.6292 156.093 65.6141 154.995 65.6 154.914C65.5356 154.567 65.4863 154.322 65.452 154.176C65.4159 154.029 65.3756 154.027 65.3313 154.17C65.1663 154.694 65.0838 154.993 65.0838 155.065C65.0878 155.285 65.0828 156.299 65.0686 158.106C65.0646 158.562 64.9408 158.932 64.6973 159.216C64.6591 159.258 64.2556 159.812 63.4868 160.877C63.4224 160.967 63.3348 161.003 63.2241 160.983L61.5819 160.665C61.4772 160.645 61.3917 160.594 61.3253 160.511C60.8483 159.93 60.5967 159.508 60.5706 159.243C60.486 158.411 60.4489 156.766 60.4588 154.309C60.4591 154.273 60.449 154.238 60.4295 154.207C60.4102 154.176 60.3823 154.152 60.3494 154.137C60.3165 154.122 60.28 154.117 60.2443 154.122C60.2085 154.128 60.175 154.143 60.1479 154.167L60.0302 154.27C60.0143 154.283 60.0016 154.3 59.9932 154.319C59.9848 154.338 59.9809 154.358 59.9819 154.379C60.0282 156.747 59.995 158.338 59.8822 159.152C59.844 159.427 59.6005 159.722 59.1517 160.036C59.0672 160.095 58.9746 160.116 58.874 160.1C57.6101 159.896 56.5172 159.657 55.5954 159.383C55.2614 159.284 55.0299 159.139 54.9011 158.95C54.6677 158.603 54.5046 158.35 54.4121 158.191C54.251 157.905 54.1706 157.482 54.1706 156.923C54.1726 155.673 54.1525 154.491 54.1102 153.377C54.084 152.676 53.9421 152.648 53.6845 153.296C53.6785 153.31 53.6724 153.484 53.6664 153.817C53.6503 154.542 53.603 155.545 53.5246 156.823C53.5206 156.886 53.4949 156.945 53.4521 156.989L52.3804 158.106C52.3019 158.189 52.2083 158.214 52.0996 158.182L51.1215 157.894C51.031 157.866 50.9615 157.812 50.9132 157.731C50.4966 157.035 50.2863 156.55 50.2822 156.276C50.2642 155.063 50.244 153.804 50.2219 152.494C50.2138 152.067 50.1364 151.78 49.9894 151.633C49.8526 151.495 49.7801 151.525 49.772 151.72L49.603 155.599C49.5809 156.088 49.4138 156.15 49.1019 155.783C48.5564 155.147 48.2596 154.352 48.2114 153.395C48.1328 151.839 48.0906 151.034 48.0846 150.981C48.0584 150.709 48.0202 150.521 47.9698 150.416C47.8149 150.106 47.7062 150.124 47.6438 150.47C47.5391 151.051 47.4959 151.787 47.514 152.676C47.52 152.918 47.4274 153.168 47.2362 153.426C47.1617 153.527 47.0903 153.525 47.0219 153.42C46.7321 152.988 46.4533 152.675 46.1856 152.479C46.0871 152.405 46.0378 152.306 46.0378 152.183V148.271C46.0378 148.177 46.0055 148.094 45.9411 148.023C45.5094 147.551 44.9902 147.097 44.6128 146.619C40.9962 142.05 37.8425 138.057 35.1517 134.64C35.0893 134.561 35.0078 134.522 34.9072 134.522C33.6856 134.508 32.489 134.302 31.3178 133.904C31.1276 133.838 30.8377 133.943 30.6144 133.907C24.4377 132.903 20.326 132.235 18.2792 131.901C17.283 131.738 16.5041 131.515 15.9427 131.233C15.4173 130.969 14.6254 130.565 13.5668 130.02C13.4754 129.975 13.4033 129.898 13.3645 129.802C12.634 128.031 11.9809 126.49 11.4053 125.177C11.1436 124.58 10.9696 123.863 10.883 123.026C10.8408 122.621 10.3054 117.771 9.27698 108.477C9.11598 107.022 8.69031 104.477 8 100.845V85.3684C8.29585 84.1865 8.58063 83.0017 8.85434 81.8138C9.11396 80.6924 9.33736 79.4965 9.52453 78.2259C9.55069 78.0485 9.68251 77.159 9.92 75.5577C10.0569 74.626 10.1394 73.7305 10.1675 72.8713C10.2823 69.4649 10.3185 66.5638 10.5932 63.3753C10.7723 61.2858 11.04 58.1991 11.3962 54.1151C11.4023 54.0546 11.4345 54.0244 11.4928 54.0244C12.9801 54.0244 14.4745 54.0163 15.9758 54.0002C16.5414 53.9942 17.1894 54.1141 17.92 54.3602C43.7433 63.0485 57.5316 67.6882 59.2846 68.2791C60.5202 68.6965 61.5386 68.9002 62.3396 68.8901C64.8654 68.8579 71.1799 68.8397 81.283 68.8357C81.7801 68.8357 82.2501 68.8216 82.6928 68.7934C83.1336 68.7631 83.5894 68.6683 84.0604 68.509C94.5801 64.9594 108.612 60.2392 126.155 54.3481C126.785 54.1364 127.429 54.0294 128.087 54.0274C130.009 54.0194 131.461 54.0254 132.441 54.0456C132.545 54.0476 132.601 54.101 132.61 54.2059C132.855 57.0738 133.126 60.1948 133.422 63.5689C133.664 66.3188 133.751 70.0186 133.808 72.3086C133.84 73.5833 133.954 74.8498 134.15 76.1083C134.254 76.7799 134.442 78.0403 134.714 79.8898C134.851 80.8135 135.279 82.6185 136 85.3049ZM14.0378 85.7979C14.0381 85.7949 14.0391 85.792 14.0406 85.7895C14.0422 85.7869 14.0443 85.7845 14.0468 85.7828L19.4627 81.5627C19.4653 81.5608 19.4682 81.5596 19.4713 81.5591C19.4744 81.5586 19.4777 81.5588 19.4808 81.5597L51.6559 89.8668C51.6586 89.8677 51.6615 89.8681 51.6644 89.8678C51.6674 89.8675 51.6702 89.8667 51.6727 89.8652C51.6753 89.8638 51.6775 89.8619 51.6793 89.8596C51.6811 89.8573 51.6824 89.8545 51.683 89.8517L51.692 89.8154C51.693 89.8126 51.6934 89.8097 51.6931 89.8068C51.6927 89.8038 51.6919 89.801 51.6905 89.7985C51.689 89.796 51.6871 89.7937 51.6848 89.7919C51.6825 89.7901 51.6798 89.7889 51.677 89.7882L19.1819 80.9516C19.1788 80.9508 19.1756 80.9506 19.1725 80.9511C19.1694 80.9516 19.1663 80.9528 19.1638 80.9546L13.1381 85.7828C13.1356 85.7845 13.1335 85.7869 13.1319 85.7895C13.1304 85.792 13.1294 85.7949 13.1291 85.7979L13.1321 103.329C13.132 103.332 13.1326 103.334 13.1336 103.337C13.1346 103.339 13.1361 103.342 13.1381 103.344L17.6755 107.891C17.6774 107.893 17.6798 107.895 17.6824 107.896C17.685 107.897 17.6878 107.897 17.6906 107.897C17.6933 107.897 17.6962 107.897 17.6988 107.896C17.7013 107.895 17.7037 107.893 17.7056 107.891C17.7076 107.889 17.7093 107.887 17.7103 107.884C17.7114 107.882 17.7119 107.879 17.7119 107.876C17.7119 107.873 17.7114 107.871 17.7103 107.868C17.7093 107.865 17.7076 107.863 17.7056 107.861L14.0408 103.335C14.0375 103.332 14.0354 103.327 14.0347 103.323L14.0378 85.7979ZM124.559 81.5475C124.561 81.5472 124.563 81.5472 124.565 81.5478C124.567 81.5483 124.569 81.5492 124.571 81.5507L129.956 85.8221C129.958 85.8235 129.96 85.8254 129.961 85.8275C129.962 85.8296 129.962 85.8319 129.962 85.8343V103.272C129.962 103.275 129.961 103.278 129.959 103.281L126.433 107.746C126.431 107.748 126.43 107.75 126.43 107.753C126.43 107.756 126.43 107.758 126.431 107.761C126.432 107.763 126.433 107.765 126.435 107.767C126.437 107.768 126.439 107.77 126.442 107.77L126.506 107.782C126.509 107.783 126.512 107.782 126.514 107.781C126.517 107.78 126.519 107.778 126.521 107.776L130.865 103.251C130.867 103.248 130.868 103.245 130.868 103.242V85.7707C130.868 85.7684 130.867 85.7661 130.866 85.764C130.865 85.7619 130.864 85.76 130.862 85.7586L124.809 80.9606C124.809 80.9606 124.806 80.9584 124.804 80.9579C124.802 80.9573 124.799 80.9573 124.797 80.9576L93.0747 89.5855C93.0727 89.5858 93.0708 89.5866 93.0691 89.5877C93.0674 89.5889 93.066 89.5903 93.0649 89.592C93.0637 89.5937 93.063 89.5956 93.0626 89.5976C93.0622 89.5996 93.0623 89.6017 93.0627 89.6037L93.0808 89.6611C93.0811 89.6631 93.0819 89.6651 93.083 89.6668C93.0841 89.6685 93.0855 89.6699 93.0872 89.6711C93.089 89.6722 93.0928 89.6733 93.0928 89.6733C93.0948 89.6737 93.0988 89.6732 93.0988 89.6732L124.559 81.5475ZM43.3389 91.5942L42.7804 91.446L42.3276 91.3764L41.5004 91.1435L40.7668 90.9892L39.0822 90.5838L38.3306 90.4325L36.3744 89.9455C36.2838 89.893 36.1761 89.8618 36.0514 89.8517L35.1638 89.5976L20.5615 85.5408C20.4629 85.5126 20.3834 85.5398 20.323 85.6225L17.8415 89.0954C17.7179 89.2665 17.6514 89.4718 17.6513 89.6823V100.724C17.6513 100.849 17.6926 100.96 17.7751 101.054L21.76 105.607C21.8506 105.71 21.9623 105.775 22.0951 105.804C23.4335 106.1 25.604 106.586 28.6068 107.262C29.5246 107.468 30.4513 107.571 31.3872 107.573C34.4704 107.577 39.2241 107.575 45.6483 107.567C46.5982 107.567 47.4476 107.47 48.1962 107.274C50.6274 106.642 53.3766 105.951 56.4438 105.199C56.5439 105.173 56.6338 105.116 56.7004 105.036L59.523 101.644C59.5874 101.565 59.6226 101.468 59.6226 101.366V96.8369C59.6226 96.7381 59.5804 96.6634 59.4958 96.613C58.3587 95.9455 57.5144 95.4473 56.963 95.1186C56.3814 94.7737 55.7656 94.5226 55.1155 94.3653C51.1788 93.4235 47.2534 92.4998 43.3389 91.5942ZM108.89 89.5886C108.561 89.6531 108.335 89.7308 108.214 89.8215C108.046 89.8134 107.869 89.8447 107.686 89.9153C107.433 89.9395 107.207 90.008 107.01 90.121L106.394 90.2359L104.456 90.6836L103.831 90.85C103.608 90.8681 103.409 90.9247 103.236 91.0194C102.993 91.0255 102.765 91.0708 102.554 91.1556C102.3 91.1778 102.08 91.2393 101.893 91.3401L101.343 91.4218L100.661 91.5791C96.9701 92.4605 93.1955 93.3488 89.3373 94.2443C88.3412 94.4742 87.6015 94.7414 87.1185 95.046C86.4543 95.4655 85.5849 95.9858 84.5102 96.607C84.4696 96.6311 84.4361 96.6653 84.4128 96.7062C84.3895 96.747 84.3773 96.7931 84.3774 96.8399V101.405C84.3774 101.542 84.4226 101.663 84.5132 101.768L87.3902 105.057C87.4646 105.141 87.5562 105.197 87.6649 105.223C91.1889 106.102 93.8898 106.78 95.7676 107.256C96.5806 107.461 97.4159 107.565 98.2732 107.567C105.466 107.571 110.297 107.567 112.766 107.555C113.685 107.551 114.595 107.446 115.499 107.241C117.649 106.747 119.802 106.262 121.962 105.788C122.061 105.766 122.145 105.716 122.213 105.637L126.225 101.051C126.305 100.961 126.346 100.853 126.346 100.73V89.4947C126.346 89.3758 126.31 89.2679 126.24 89.1711L123.64 85.6194C123.617 85.5875 123.585 85.5634 123.548 85.5505C123.51 85.5375 123.47 85.5363 123.433 85.5469L108.89 89.5886ZM92.2204 89.8699C91.8702 89.8961 91.5422 89.9798 91.2362 90.121C91.2161 90.1311 91.2171 90.1331 91.2392 90.1271L92.2204 89.8699C92.4901 89.8517 92.7396 89.7882 92.969 89.6793C92.9831 89.6712 92.9831 89.6621 92.969 89.652C92.963 89.648 92.957 89.644 92.951 89.64C92.9228 89.6238 92.8916 89.6218 92.8573 89.6339L92.2204 89.8699ZM52.1178 89.9788C52.4518 90.0877 52.6702 90.1422 52.7728 90.1422C52.795 90.1422 52.796 90.1371 52.7758 90.1271C52.5384 90.0141 52.3331 89.9395 52.16 89.9031C51.6528 89.7963 51.6387 89.8215 52.1178 89.9788ZM90.9334 90.198C90.9319 90.1923 90.9214 90.189 90.9027 90.1885C90.884 90.188 90.8573 90.1903 90.8244 90.195C90.7914 90.1998 90.7526 90.2072 90.7104 90.2166C90.6681 90.2259 90.6232 90.2371 90.578 90.2497C90.487 90.275 90.4011 90.3038 90.339 90.3299C90.2769 90.356 90.2437 90.3772 90.247 90.3888C90.2485 90.3946 90.259 90.3978 90.2777 90.3983C90.2964 90.3988 90.323 90.3966 90.356 90.3917C90.389 90.387 90.4278 90.3796 90.47 90.3703C90.5122 90.3609 90.5572 90.3496 90.6023 90.3371C90.6933 90.3118 90.7793 90.283 90.8414 90.2569C90.9035 90.2308 90.9366 90.2096 90.9334 90.198ZM53.6996 90.3932C53.7039 90.3943 53.7081 90.3938 53.7117 90.3918C53.7154 90.3899 53.7182 90.3865 53.7196 90.3823C53.7209 90.378 53.7209 90.3732 53.7195 90.3685C53.7181 90.364 53.7154 90.3599 53.7117 90.357C53.609 90.3025 53.4933 90.2752 53.3645 90.2752C53.3605 90.2744 53.3563 90.2753 53.353 90.2775C53.3496 90.2799 53.3472 90.2834 53.3464 90.2873C53.3457 90.2913 53.3465 90.2956 53.3487 90.2989C53.351 90.3023 53.3545 90.3047 53.3585 90.3055L53.6996 90.3932ZM54.8196 90.8985C54.8418 90.8985 54.8629 90.8975 54.883 90.8955C54.9323 90.8938 54.964 90.8779 54.9719 90.8512C54.9797 90.8244 54.9633 90.7885 54.9257 90.7505C54.8881 90.7124 54.8321 90.6749 54.7685 90.6453C54.7048 90.6156 54.6381 90.5959 54.5811 90.5899C54.5611 90.5879 54.5399 90.5868 54.5177 90.5868C54.4597 90.586 54.4199 90.6017 54.4071 90.6304C54.3943 90.659 54.4096 90.6983 54.4497 90.7396C54.4897 90.781 54.5512 90.821 54.6205 90.8507C54.6899 90.8804 54.7615 90.8977 54.8196 90.8985ZM54.7804 90.6624C54.8226 90.6766 54.8659 90.6776 54.9102 90.6655C54.8619 90.6453 54.8186 90.6443 54.7804 90.6624ZM71.997 136.655C72.4438 136.655 73.286 136.647 74.5238 136.633C74.5506 136.632 74.5772 136.637 74.6021 136.647C74.627 136.658 74.6497 136.672 74.6688 136.691C74.6879 136.709 74.703 136.731 74.7134 136.755C74.7238 136.781 74.729 136.807 74.729 136.833V137.956C74.729 137.999 74.7463 138.041 74.7768 138.073C74.8073 138.104 74.8489 138.122 74.8921 138.122H81.8928C81.9995 138.122 82.08 138.076 82.1344 137.983L87.0158 129.506C87.1165 129.332 87.1165 129.159 87.0158 128.986C82.4231 121.017 79.513 115.974 78.2853 113.856C78.2752 113.84 78.244 113.757 78.1917 113.605C78.1152 113.39 77.8797 113.3 77.4853 113.336C77.2579 113.357 77.1442 113.253 77.1442 113.025V101.441C77.1441 101.395 77.135 101.35 77.1174 101.307C77.0997 101.266 77.0739 101.228 77.0415 101.197L73.1049 97.4026C73.0345 97.3341 72.9509 97.2977 72.8544 97.2936C72.6772 97.2836 72.3915 97.2785 71.997 97.2785C71.6025 97.2785 71.3158 97.2836 71.1366 97.2936C71.04 97.2977 70.9564 97.3341 70.886 97.4026L66.9494 101.197C66.917 101.228 66.8912 101.266 66.8735 101.307C66.8559 101.35 66.8468 101.395 66.8468 101.441L66.8498 113.025C66.8498 113.253 66.7361 113.357 66.5087 113.336C66.1142 113.3 65.8788 113.39 65.8023 113.605C65.75 113.757 65.7187 113.84 65.7086 113.856C64.481 115.974 61.5718 121.018 56.9812 128.989C56.8805 129.162 56.8805 129.335 56.9812 129.509L61.8626 137.983C61.917 138.076 61.9975 138.122 62.1042 138.122H69.1049C69.1481 138.122 69.1896 138.104 69.2202 138.073C69.2507 138.041 69.268 137.999 69.268 137.956V136.833C69.268 136.807 69.2732 136.781 69.2833 136.756C69.2935 136.732 69.3084 136.71 69.3271 136.692C69.346 136.673 69.3682 136.659 69.3928 136.648C69.4173 136.638 69.4436 136.633 69.4702 136.633C70.7099 136.647 71.5522 136.655 71.997 136.655ZM61.0415 113.333C60.2526 114.665 57.8214 118.703 53.7479 125.449C53.7318 125.477 53.7398 125.493 53.7721 125.497C53.7942 125.499 53.8163 125.481 53.8385 125.443C54.5046 124.391 57.0817 120.331 61.5698 113.267C61.6885 113.079 61.755 112.876 61.7691 112.656L62.1796 105.982C62.1796 105.968 62.1666 105.96 62.1404 105.958H62.1373C62.1052 105.956 62.0871 105.968 62.083 105.994C61.7972 108.905 61.611 110.898 61.5246 111.975C61.4903 112.394 61.3293 112.848 61.0415 113.333ZM82.9585 113.37C82.6787 112.898 82.5218 112.458 82.4875 112.05C82.403 111.004 82.2198 109.065 81.9381 106.233C81.9341 106.209 81.916 106.198 81.8838 106.2H81.8808C81.8566 106.202 81.8445 106.209 81.8445 106.221L82.2521 112.714C82.2662 112.927 82.3306 113.125 82.4453 113.306C86.8187 120.173 89.3303 124.118 89.9804 125.141C90.0025 125.179 90.0246 125.197 90.0468 125.195C90.077 125.191 90.084 125.175 90.068 125.147C86.0971 118.59 83.7273 114.665 82.9585 113.37ZM22.9457 117.071C22.9467 117.067 22.9373 117.059 22.9182 117.051C22.8991 117.043 22.8706 117.033 22.8344 117.021C22.7981 117.01 22.7548 116.998 22.7069 116.986C22.6589 116.973 22.6074 116.961 22.5552 116.95C22.5029 116.938 22.451 116.926 22.4024 116.917C22.3537 116.908 22.3094 116.901 22.2718 116.895C22.2341 116.89 22.2041 116.887 22.1832 116.887C22.1623 116.886 22.1512 116.888 22.1501 116.892C22.1492 116.897 22.1585 116.903 22.1777 116.911C22.1967 116.92 22.2252 116.93 22.2615 116.942C22.2978 116.953 22.341 116.965 22.389 116.978C22.4369 116.99 22.4884 117.002 22.5407 117.014C22.5929 117.026 22.6448 117.036 22.6935 117.045C22.7421 117.054 22.7865 117.062 22.8241 117.068C22.8617 117.073 22.8918 117.076 22.9127 117.077C22.9335 117.077 22.9448 117.075 22.9457 117.071ZM120.891 117.115L105.938 119.347C105.853 119.361 105.788 119.404 105.742 119.474C101.045 126.38 96.6853 132.795 92.6641 138.721C92.6682 138.739 92.6631 138.753 92.649 138.763C92.645 138.765 92.644 138.767 92.646 138.769C92.648 138.769 92.65 138.77 92.652 138.772C92.6581 138.776 92.6631 138.775 92.6672 138.769L105.99 120.143C106.07 120.031 106.192 119.953 106.327 119.928L120.891 117.115C121.194 117.089 121.43 117.043 121.597 116.979C121.84 116.886 121.834 116.867 121.579 116.921C121.376 116.966 121.146 117.03 120.891 117.115ZM37.9714 120.091C44.0131 128.55 48.4639 134.77 51.3238 138.751C51.348 138.787 51.361 138.788 51.363 138.754C51.363 138.744 51.357 138.73 51.3449 138.712C44.478 128.618 40.1167 122.21 38.2611 119.489C38.2344 119.451 38.2004 119.419 38.161 119.394C38.1216 119.369 38.0777 119.352 38.0317 119.344L23.3962 117.07C23.3681 117.063 23.3489 117.077 23.3388 117.109V117.112C23.3373 117.118 23.3375 117.124 23.3394 117.13C23.3414 117.136 23.3449 117.142 23.3499 117.148C23.3551 117.153 23.3615 117.158 23.3689 117.163C23.3763 117.167 23.3846 117.17 23.3932 117.172L37.7479 119.946C37.8405 119.964 37.915 120.013 37.9714 120.091Z" fill="url(#paint0_linear_44_6369)" fill-opacity="0.75"/>
        <path d="M71.997 99.719C72.007 99.719 72.0181 99.72 72.0302 99.722C72.0523 99.7261 72.0774 99.7422 72.1056 99.7714C72.8765 100.525 73.6996 101.35 74.575 102.246C74.6336 102.304 74.67 102.383 74.6777 102.466C74.718 102.989 74.7351 103.58 74.729 104.242C74.6988 107.1 74.6958 109.496 74.72 111.43C74.7442 113.241 74.6848 115.255 74.5419 117.475C74.4533 118.827 74.1132 124.551 73.5215 134.645C73.52 134.678 73.5065 134.71 73.4836 134.734C73.4607 134.757 73.4301 134.771 73.3977 134.773C72.955 134.795 72.4901 134.806 72.0029 134.806C71.5159 134.808 71.051 134.797 70.6083 134.773C70.5759 134.771 70.5453 134.757 70.5224 134.734C70.4995 134.71 70.486 134.678 70.4845 134.645C69.8888 124.551 69.5456 118.827 69.455 117.475C69.3122 115.255 69.2528 113.241 69.277 111.43C69.2991 109.496 69.2951 107.1 69.2649 104.242C69.2588 103.58 69.2759 102.989 69.3162 102.466C69.3239 102.383 69.3603 102.304 69.4189 102.246C70.2943 101.35 71.1164 100.525 71.8852 99.7714C71.9134 99.7422 71.9385 99.7261 71.9607 99.722C71.9728 99.72 71.9849 99.719 71.997 99.719Z" fill="url(#paint1_linear_44_6369)" fill-opacity="0.75"/>
        <path d="M40.8536 172.064C40.8455 172.155 40.8526 172.234 40.8746 172.3C40.7982 172.802 40.8334 173.28 40.9804 173.731C41.0206 173.852 41.1011 173.891 41.2219 173.849C41.3668 173.799 41.5096 173.802 41.6505 173.858C41.6988 173.878 41.8508 173.831 42.1064 173.716C44.9079 172.435 46.4374 171.739 46.695 171.626C46.9698 171.505 47.0271 171.326 47.2354 171.163C47.2835 171.125 47.3213 171.074 47.3451 171.018C47.369 170.962 47.3782 170.899 47.3718 170.839C47.3655 170.777 47.3439 170.719 47.3089 170.668C47.274 170.617 47.227 170.577 47.172 170.548C46.8882 170.403 46.7515 170.198 46.7614 169.932C46.7614 169.908 46.7556 169.885 46.7445 169.865C46.7334 169.845 46.7174 169.829 46.698 169.817C46.6237 169.768 46.5642 169.778 46.52 169.847C46.4737 169.921 46.4063 169.957 46.3177 169.953C46.2956 169.951 46.2704 169.948 46.2422 169.944C46.2374 169.944 46.2327 169.943 46.2283 169.942C46.2237 169.94 46.2197 169.938 46.2162 169.934C46.2127 169.931 46.2098 169.926 46.2078 169.922C46.2058 169.918 46.2047 169.913 46.2045 169.908C46.2043 169.904 46.205 169.899 46.2067 169.895C46.2083 169.89 46.2108 169.886 46.2141 169.883C46.2173 169.879 46.2211 169.876 46.2254 169.874C46.2298 169.872 46.2344 169.871 46.2393 169.871C46.3076 169.857 46.362 169.838 46.4022 169.814C46.5028 169.751 46.5129 169.675 46.4325 169.584C46.4002 169.548 46.3831 169.529 46.3811 169.529C46.357 169.511 46.3237 169.503 46.2815 169.505C45.9816 169.521 45.8014 169.409 45.7411 169.17C45.6666 168.88 45.6244 168.724 45.6143 168.7C43.1529 163.284 40.1532 156.681 36.6151 148.894C36.5708 148.795 36.5868 148.709 36.6633 148.634C37.0216 148.291 37.1263 147.936 36.9773 147.566C36.5909 146.604 35.9761 145.24 35.1328 143.473C35.0865 143.376 35.0996 143.288 35.172 143.21C35.6933 142.647 35.6732 142.031 35.1116 141.358C35.0492 141.284 34.9738 141.267 34.8853 141.307C34.851 141.323 34.8219 141.331 34.7977 141.331C34.7645 141.329 34.7325 141.316 34.7057 141.294C34.6787 141.272 34.6583 141.241 34.6468 141.207C34.5834 141.008 34.6438 140.89 34.529 140.639C32.9451 137.159 32.0686 135.233 31.8996 134.861C31.8573 134.768 31.8865 134.73 31.9871 134.746L34.7193 135.142C34.7977 135.152 34.8621 135.189 34.9125 135.254L44.6452 147.572C44.7519 147.708 44.8073 147.861 44.8113 148.032L44.8928 151.372C44.8948 151.406 44.9063 151.438 44.926 151.465L46.2754 153.172C46.3303 153.241 46.36 153.326 46.36 153.413V159.456C46.36 159.77 46.4626 160.046 46.6679 160.284C47.3441 161.066 48.5134 162.4 50.1758 164.283C50.5019 164.654 50.845 164.891 51.2053 164.994C51.7446 165.15 52.4158 165.362 53.2188 165.63C53.2248 165.632 53.2312 165.632 53.2373 165.631C53.2436 165.63 53.2494 165.627 53.2544 165.623C53.2594 165.619 53.2635 165.613 53.2663 165.607C53.269 165.601 53.2703 165.594 53.2702 165.588C53.2702 165.571 53.2581 165.56 53.2339 165.554L50.9999 164.764C50.7811 164.688 50.5916 164.544 50.4574 164.355C50.3234 164.164 50.2513 163.938 50.2513 163.706V159.261C50.2513 159.156 50.2855 159.065 50.3539 158.986C50.5713 158.732 50.8953 158.633 51.326 158.69C52.1713 158.801 52.7831 159.14 53.1614 159.71C53.419 160.099 53.5579 160.718 53.5781 161.567C53.6143 163.083 53.6052 164.451 53.5509 165.669C53.5468 165.726 53.569 165.761 53.6173 165.775L54.2181 165.953C54.2482 165.962 54.2623 165.946 54.2603 165.908C54.1194 163.569 54.1054 161.928 54.2181 160.986C54.2442 160.756 54.4153 160.444 54.7313 160.051C54.7776 159.993 54.8379 159.971 54.9124 159.985L58.686 160.717C58.7886 160.735 58.8772 160.782 58.9517 160.859C59.2555 161.167 59.485 161.435 59.6399 161.661C59.819 161.919 59.9147 162.222 59.9268 162.571C59.9771 164.13 59.9801 165.643 59.9359 167.109C59.9341 167.188 59.961 167.265 60.0115 167.325C60.062 167.386 60.1327 167.426 60.2105 167.439C60.2729 167.449 60.3092 167.455 60.3193 167.457C60.346 167.461 60.3734 167.46 60.3995 167.453C60.4256 167.447 60.4498 167.435 60.4702 167.419C60.4907 167.402 60.507 167.382 60.5179 167.358C60.5289 167.335 60.5342 167.31 60.5335 167.285C60.451 165.068 60.453 163.617 60.5396 162.931C60.5838 162.568 60.8284 162.072 61.2732 161.443C61.3014 161.404 61.3396 161.374 61.3835 161.356C61.4272 161.337 61.4748 161.331 61.5207 161.34C62.372 161.492 62.9466 161.59 63.2445 161.637C63.7154 161.711 64.0586 161.869 64.274 162.108C64.5134 162.377 64.7479 162.634 64.9773 162.879C65.0518 162.96 65.089 163.055 65.089 163.165V167.968C65.0892 168.012 65.1027 168.053 65.1276 168.088C65.1526 168.122 65.1876 168.149 65.2279 168.162L65.3999 168.219C65.4248 168.227 65.4514 168.229 65.4773 168.226C65.5032 168.222 65.5277 168.212 65.5489 168.197C65.5701 168.182 65.5874 168.162 65.5993 168.14C65.6112 168.116 65.6173 168.091 65.6173 168.065V163.379C65.6173 162.958 65.778 162.552 66.0665 162.245C66.3549 161.939 66.7494 161.755 67.1691 161.73C67.9298 161.685 69.0558 161.752 70.3267 161.743C70.9526 161.737 71.2847 162.081 71.323 162.777C71.4075 164.285 71.4518 165.907 71.4559 167.642C71.4578 167.956 71.6158 168.113 71.9298 168.113H72.123C72.441 168.113 72.6 167.954 72.6 167.636V162.547C72.6 162.333 72.6849 162.128 72.836 161.976C72.9872 161.824 73.1922 161.74 73.406 161.74H76.8022C77.1811 161.739 77.5454 161.886 77.8189 162.15C78.0924 162.413 78.2538 162.772 78.2694 163.152L78.4566 167.98C78.4585 168.013 78.4691 168.044 78.4871 168.07C78.5051 168.097 78.53 168.118 78.5593 168.131L78.68 168.186C78.6953 168.193 78.7122 168.196 78.7291 168.195C78.746 168.194 78.7623 168.189 78.7767 168.18C78.791 168.171 78.803 168.158 78.8113 168.144C78.8197 168.128 78.8244 168.112 78.8248 168.095C78.8732 166.554 78.9104 165.034 78.9366 163.537C78.9516 162.71 79.3079 162.586 79.803 162.039C79.956 161.87 80.2156 161.752 80.5819 161.685C81.6445 161.488 82.2834 161.373 82.4988 161.34C82.5431 161.332 82.5885 161.338 82.6298 161.357C82.671 161.375 82.7062 161.405 82.7312 161.443C83.156 162.078 83.3823 162.523 83.4106 162.777C83.4911 163.473 83.5242 164.969 83.5101 167.267C83.5101 167.374 83.5634 167.427 83.6702 167.427H83.9268C84.0435 167.427 84.0988 167.37 84.0928 167.255C84.0143 165.867 84.0133 164.247 84.0898 162.396C84.0998 162.142 84.1814 161.911 84.3343 161.703C84.6362 161.298 84.9351 160.789 85.5056 160.698C86.7614 160.497 87.8986 160.239 88.917 159.924C89.0135 159.894 89.0981 159.915 89.1706 159.988C89.5509 160.383 89.7441 160.682 89.7502 160.886C89.7904 162.427 89.8095 163.966 89.8075 165.503C89.8075 165.662 89.7773 165.816 89.7169 165.966L89.5086 166.02L86.7735 166.791C86.5361 166.783 86.2885 166.822 86.0309 166.909C85.9363 166.893 85.8789 166.912 85.8588 166.966C85.9132 166.976 85.9685 166.955 86.0249 166.903C86.2785 166.923 86.528 166.886 86.7735 166.791L89.5086 166.02C89.5811 166.018 89.6505 166 89.7169 165.966L90.3268 165.787C90.4254 165.757 90.4716 165.69 90.4657 165.588C90.4173 164.643 90.3972 163.702 90.4052 162.762C90.4173 161.421 90.4807 160.582 90.5954 160.248C90.9275 159.284 91.7225 158.75 92.9803 158.647C93.0764 158.639 93.173 158.651 93.2641 158.683C93.3552 158.715 93.4389 158.764 93.5099 158.83C93.5808 158.895 93.6374 158.975 93.6762 159.063C93.715 159.151 93.735 159.247 93.735 159.344V163.654C93.7351 163.905 93.6573 164.149 93.5123 164.354C93.3672 164.559 93.1623 164.713 92.926 164.794L91.0906 165.439C91.0583 165.452 91.0432 165.469 91.0452 165.491C91.0452 165.497 91.0462 165.503 91.0482 165.509C91.0502 165.521 91.0583 165.525 91.0724 165.521C91.5897 165.39 92.1632 165.213 92.7932 164.988C93.2339 164.831 93.5993 164.582 93.889 164.241C94.4244 163.61 95.6037 162.253 97.4272 160.169C97.5596 160.017 97.6334 159.823 97.6355 159.622C97.6455 158 97.6525 155.978 97.6565 153.554C97.6565 153.465 97.6918 153.339 97.7622 153.178C97.8045 153.081 97.875 152.973 97.9735 152.854C98.2614 152.497 98.5099 152.175 98.7192 151.887C98.9125 151.618 99.0221 151.241 99.0482 150.755C99.1006 149.761 99.1408 148.893 99.1691 148.153C99.179 147.907 99.2606 147.689 99.4136 147.496L109.041 135.311C109.105 135.23 109.187 135.182 109.288 135.166L111.999 134.721C112.108 134.703 112.14 134.746 112.096 134.848C111.212 136.809 110.337 138.737 109.47 140.633C109.364 140.862 109.406 141.077 109.321 141.246C109.3 141.288 109.265 141.32 109.223 141.336C109.18 141.352 109.133 141.351 109.092 141.334C109.073 141.326 109.051 141.31 109.023 141.286C109.007 141.274 108.987 141.267 108.967 141.269C108.947 141.27 108.928 141.278 108.914 141.292C108.572 141.632 108.43 142.11 108.491 142.723C108.497 142.776 108.514 142.828 108.54 142.874C108.566 142.921 108.603 142.961 108.645 142.992C108.718 143.044 108.783 143.111 108.842 143.192C108.898 143.268 108.908 143.347 108.872 143.427L106.967 147.639C106.929 147.722 106.908 147.812 106.905 147.902C106.9 147.992 106.915 148.081 106.946 148.161C106.976 148.243 107.023 148.314 107.083 148.371C107.143 148.428 107.215 148.469 107.293 148.492C107.335 148.504 107.366 148.586 107.386 148.737C107.396 148.818 107.383 148.899 107.347 148.982C103.896 156.545 100.794 163.38 98.043 169.487C98.0356 169.501 98.0244 169.513 98.0109 169.52C97.9974 169.528 97.9823 169.531 97.9675 169.529L97.7894 169.502C97.7089 169.492 97.6445 169.52 97.5962 169.587L97.1464 170.216C97.092 170.292 97.0236 170.355 96.9411 170.403C96.6895 170.546 96.5879 170.709 96.6362 170.89C96.6769 171.041 96.7489 171.18 96.8469 171.297C96.9451 171.415 97.0668 171.509 97.2037 171.571L102.109 173.813C102.21 173.859 102.312 173.862 102.414 173.822C102.525 173.78 102.631 173.765 102.731 173.78C102.667 173.846 102.687 173.903 102.791 173.949C103.061 173.753 103.19 173.458 103.178 173.063C103.166 172.675 103.158 172.283 103.154 171.886C103.152 171.791 103.119 171.709 103.054 171.641C102.958 171.536 102.955 171.385 103.045 171.187C103.933 169.259 106.977 162.552 112.178 151.066C112.218 150.975 112.283 150.951 112.373 150.994C112.973 151.278 113.431 151.124 113.747 150.531C113.914 150.221 114.51 148.895 115.534 146.556C115.576 146.461 115.649 146.404 115.752 146.384C115.953 146.341 116.098 146.332 116.186 146.356C116.365 146.405 116.517 146.358 116.64 146.217C116.951 145.86 117.079 145.454 117.023 145.001C117.008 144.896 117.024 144.796 117.068 144.701L122.043 133.741C122.078 133.665 122.085 133.577 122.062 133.492C122.039 133.406 121.987 133.328 121.916 133.269C121.884 133.245 121.845 133.227 121.799 133.215C121.646 133.178 121.536 133.232 121.469 133.375L116.528 144.26C116.495 144.335 116.442 144.355 116.367 144.32L110.067 141.449C110.043 141.438 110.021 141.423 110.003 141.403C109.985 141.384 109.97 141.36 109.961 141.335C109.952 141.311 109.948 141.284 109.949 141.258C109.95 141.23 109.956 141.204 109.967 141.18L112.899 134.721C112.919 134.677 112.951 134.638 112.99 134.608C113.029 134.577 113.076 134.557 113.125 134.549L126.152 132.419C126.263 132.401 126.31 132.448 126.294 132.559L123.933 148.882C123.916 148.993 123.883 149.1 123.833 149.2C121.117 154.651 118.67 159.553 116.497 163.905C115.525 165.856 114.561 167.625 113.605 169.212C110.737 173.979 107.125 180.037 102.767 187.387C102.387 188.028 101.904 188.632 101.318 189.196C99.0161 191.408 96.452 193.886 93.6264 196.629C93.4896 196.762 93.3237 196.859 93.1434 196.91L86.1818 198.931H57.895C55.6591 198.276 53.4211 197.626 51.1811 196.983C50.7665 196.864 50.4314 196.682 50.1758 196.436C47.5433 193.906 45.0447 191.486 42.6799 189.175C42.0601 188.57 41.5449 187.917 41.1343 187.218C40.7298 186.532 37.1263 180.481 30.3237 169.067C29.1987 167.175 28.2297 165.407 27.4166 163.763C24.8767 158.616 22.5713 153.994 20.5004 149.896C20.2226 149.349 20.0354 148.737 19.9388 148.06C18.9204 140.914 18.2473 136.189 17.9192 133.883C17.9132 133.835 17.8427 133.599 17.7079 133.175C17.6455 132.982 17.6315 132.778 17.6656 132.565C17.6838 132.45 17.7492 132.401 17.8619 132.419L30.8098 134.54C30.9587 134.564 31.0644 134.645 31.1268 134.782L34.0159 141.147C34.0822 141.292 34.043 141.397 33.898 141.461L27.6672 144.302C27.5685 144.349 27.497 144.322 27.4528 144.224L22.5079 133.333C22.4697 133.25 22.4053 133.202 22.3146 133.187C22.053 133.149 21.9363 133.324 21.9645 133.711C21.9685 133.755 21.9797 133.798 21.9977 133.838L26.9214 144.68C26.9618 144.771 26.9778 144.866 26.9698 144.964C26.9275 145.525 27.0946 145.978 27.4709 146.323C27.5333 146.378 27.6058 146.402 27.6882 146.396L28.2105 146.356C28.3112 146.348 28.3816 146.391 28.4219 146.483C29.394 148.677 29.9967 150.013 30.2302 150.489C30.5341 151.103 30.9929 151.267 31.6067 150.978C31.6973 150.934 31.7638 150.958 31.806 151.051L40.9713 171.239C41.0115 171.327 41.0196 171.42 40.9954 171.517L40.8536 172.064ZM56.9419 166.777C56.9436 166.771 56.9182 166.758 56.8671 166.737C56.816 166.715 56.7402 166.688 56.644 166.656C56.5479 166.623 56.4332 166.585 56.3066 166.546C56.18 166.506 56.0441 166.464 55.9064 166.424C55.6283 166.342 55.3603 166.268 55.1614 166.219C54.9623 166.168 54.8486 166.147 54.8452 166.158C54.8435 166.164 54.8689 166.178 54.92 166.198C54.9711 166.22 55.047 166.247 55.1431 166.28C55.2393 166.312 55.3539 166.35 55.4805 166.39C55.607 166.429 55.743 166.47 55.8808 166.511C56.1588 166.593 56.4267 166.667 56.6258 166.717C56.8248 166.767 56.9385 166.788 56.9419 166.777ZM57.1132 166.758C57.1695 166.772 57.2259 166.769 57.2822 166.749C57.2178 166.729 57.1615 166.732 57.1132 166.758ZM45.7079 166.873C45.7063 166.872 45.7048 166.87 45.7035 166.869C45.7022 166.867 45.7012 166.866 45.7005 166.864C45.6999 166.863 45.6997 166.862 45.6999 166.862C45.7001 166.861 45.7009 166.861 45.7019 166.861C45.7059 166.859 45.7019 166.862 45.6898 166.87C45.6874 166.872 45.6856 166.874 45.6844 166.877C45.6833 166.88 45.6829 166.884 45.6831 166.888C45.6834 166.892 45.6844 166.896 45.686 166.9C45.6877 166.904 45.6901 166.908 45.6928 166.912L48.6543 170.961C48.7187 171.049 48.7228 171.142 48.6664 171.239C48.4339 171.635 48.2227 171.977 47.809 172.182C44.778 173.693 43.0241 174.573 42.5471 174.823C42.3016 174.953 41.9927 175.027 41.6204 175.047C41.2098 175.072 40.8817 174.992 40.6362 174.808C40.445 174.665 40.2518 174.27 40.0566 173.625C39.5152 171.826 38.9688 170.029 38.4173 168.234C38.4073 168.208 38.3901 168.198 38.366 168.204H38.363C38.3368 168.214 38.3247 168.228 38.3267 168.246L39.6762 175.825C39.6963 175.937 39.7607 176.012 39.8694 176.048L41.1403 176.475C41.245 176.511 41.3466 176.503 41.4452 176.45L49.0135 172.491C49.1655 172.411 49.2971 172.298 49.3984 172.159C49.4997 172.02 49.5679 171.861 49.5976 171.691C49.6273 171.522 49.618 171.348 49.5701 171.183C49.5222 171.018 49.4371 170.866 49.3214 170.739C48.1743 169.483 46.9698 168.194 45.7079 166.873ZM58.0943 166.988C57.8407 166.873 57.6414 166.809 57.4966 166.797C57.1524 166.769 57.1494 166.789 57.4875 166.858L58.1033 166.984C58.1074 166.984 58.1094 166.982 58.1094 166.978L58.1124 166.972C58.1133 166.975 58.1134 166.977 58.1128 166.979C58.1123 166.981 58.111 166.983 58.1092 166.984C58.1073 166.987 58.105 166.988 58.1023 166.989C58.0997 166.989 58.0969 166.989 58.0943 166.988ZM98.2905 166.873C97.0286 168.194 95.8241 169.483 94.677 170.739C94.5613 170.866 94.4762 171.018 94.4283 171.183C94.3805 171.348 94.3711 171.522 94.4008 171.691C94.4305 171.861 94.4987 172.02 94.6 172.159C94.7013 172.298 94.8329 172.411 94.9849 172.491L102.553 176.45C102.652 176.503 102.753 176.511 102.858 176.475L104.129 176.048C104.238 176.012 104.302 175.937 104.322 175.825L105.672 168.246C105.674 168.228 105.662 168.214 105.636 168.204H105.633C105.608 168.198 105.591 168.208 105.581 168.234C105.03 170.029 104.484 171.826 103.941 173.625C103.747 174.27 103.553 174.665 103.362 174.808C103.117 174.992 102.788 175.072 102.378 175.047C102.006 175.027 101.697 174.953 101.451 174.823C100.974 174.573 99.2204 173.693 96.1894 172.182C95.7759 171.977 95.5645 171.635 95.3321 171.239C95.2757 171.142 95.2797 171.049 95.3441 170.961L98.3056 166.912C98.3084 166.908 98.3107 166.904 98.3124 166.9C98.314 166.896 98.315 166.892 98.3153 166.888C98.3156 166.884 98.3151 166.88 98.314 166.877C98.3129 166.874 98.3111 166.872 98.3086 166.87C98.2966 166.862 98.2925 166.859 98.2966 166.861C98.2976 166.861 98.2983 166.861 98.2985 166.862C98.2987 166.862 98.2985 166.863 98.2979 166.864C98.2973 166.866 98.2962 166.867 98.2949 166.869C98.2936 166.87 98.2921 166.872 98.2905 166.873ZM59.315 167.208C59.316 167.204 59.3125 167.199 59.3048 167.193C59.2972 167.188 59.2854 167.181 59.2703 167.175C59.2551 167.168 59.2369 167.162 59.2165 167.155C59.1963 167.149 59.1743 167.143 59.1519 167.137C59.1069 167.127 59.0628 167.119 59.0296 167.117C58.9963 167.115 58.9766 167.118 58.9747 167.126C58.9737 167.129 58.9773 167.134 58.9849 167.14C58.9926 167.146 59.0044 167.152 59.0195 167.158C59.0346 167.165 59.0529 167.171 59.0732 167.178C59.0935 167.184 59.1155 167.19 59.1377 167.196C59.1829 167.207 59.2269 167.214 59.2602 167.216C59.2934 167.218 59.3132 167.215 59.315 167.208ZM85.0891 167.122C85.0608 167.126 84.9803 167.147 84.8475 167.185C83.972 167.431 84.0666 167.544 85.1313 167.524C85.1997 167.524 85.2782 167.513 85.3667 167.49C85.4237 167.476 85.4636 167.444 85.4781 167.401C85.4927 167.357 85.4807 167.307 85.4446 167.26C85.4087 167.211 85.3515 167.17 85.2852 167.145C85.2188 167.119 85.1485 167.11 85.0891 167.122ZM82.2422 167.645C82.1536 167.689 82.1546 167.71 82.2452 167.708C82.3861 167.706 82.4988 167.696 82.5834 167.678C82.8088 167.63 82.8067 167.608 82.5773 167.614C82.3882 167.618 82.2764 167.629 82.2422 167.645ZM62.0007 167.747C62.3116 167.826 62.5593 167.911 62.852 167.929C62.8621 167.929 62.8672 167.924 62.8672 167.914C62.8672 167.91 62.8672 167.906 62.8672 167.902C62.8672 167.898 62.8662 167.896 62.8641 167.896L62.037 167.723C62.0269 167.721 62.0198 167.72 62.0158 167.72C62.0098 167.722 62.0037 167.724 61.9977 167.726C61.9736 167.732 61.9746 167.739 62.0007 167.747ZM82.1292 167.711C82.1273 167.702 82.0694 167.704 81.9681 167.717C81.8669 167.73 81.7305 167.754 81.5891 167.782C81.4478 167.809 81.313 167.84 81.2144 167.866C81.1157 167.893 81.0613 167.913 81.0631 167.923C81.065 167.932 81.123 167.93 81.2243 167.917C81.3256 167.904 81.4618 167.881 81.6032 167.852C81.7445 167.824 81.8794 167.794 81.9781 167.768C82.0766 167.74 82.1311 167.72 82.1292 167.711ZM68.7177 173.507L66.5743 194.605C66.572 194.629 66.56 194.652 66.5409 194.668C66.5217 194.684 66.4968 194.691 66.4716 194.69L54.6588 193.658C54.6467 193.656 54.6407 193.661 54.6407 193.673C54.6407 193.677 54.6407 193.681 54.6407 193.685C54.6367 193.713 54.6478 193.729 54.674 193.733L67.0724 195.292C67.0844 195.293 67.0966 195.292 67.1084 195.288C67.1201 195.284 67.1311 195.277 67.1406 195.267C67.1501 195.258 67.1582 195.247 67.164 195.235C67.17 195.223 67.1737 195.209 67.175 195.195L68.7479 173.507C68.7942 173.485 68.8123 173.457 68.8022 173.423C68.778 173.34 68.7509 173.34 68.7207 173.423C68.7106 173.447 68.7096 173.475 68.7177 173.507ZM88.9683 193.694C89.0548 193.734 89.1353 193.729 89.2098 193.679C89.1312 193.637 89.0508 193.642 88.9683 193.694L77.5811 194.666C77.4824 194.676 77.4281 194.63 77.418 194.53L75.3199 173.526C75.3179 173.499 75.3038 173.487 75.2777 173.489L75.1962 173.498C75.1901 173.498 75.1871 173.501 75.1871 173.507L76.8204 195.207C76.8211 195.219 76.8243 195.231 76.8301 195.243C76.8357 195.254 76.8436 195.263 76.8532 195.271C76.8628 195.28 76.874 195.286 76.886 195.289C76.898 195.293 76.9106 195.294 76.923 195.292L88.9683 193.694ZM48.5079 176.106C48.4732 176.033 48.4112 175.978 48.3356 175.952C48.2601 175.925 48.1771 175.929 48.105 175.965L45.5588 177.192C45.5232 177.209 45.4911 177.234 45.4647 177.264C45.4383 177.293 45.4179 177.327 45.4048 177.365C45.3917 177.403 45.3861 177.442 45.3883 177.482C45.3905 177.522 45.4005 177.56 45.4177 177.596L45.4256 177.613C45.4603 177.685 45.5223 177.741 45.5978 177.767C45.6734 177.793 45.7564 177.789 45.8285 177.754L48.3746 176.526C48.4104 176.509 48.4424 176.485 48.4688 176.455C48.4952 176.425 48.5155 176.391 48.5286 176.354C48.5417 176.315 48.5474 176.276 48.5452 176.237C48.543 176.196 48.533 176.158 48.5157 176.122L48.5079 176.106ZM98.565 177.579C98.5979 177.511 98.6021 177.431 98.5769 177.36C98.5516 177.288 98.4989 177.229 98.4303 177.196L95.8765 175.97C95.808 175.936 95.7292 175.932 95.6574 175.958C95.5857 175.983 95.5269 176.036 95.4941 176.105L95.4862 176.121C95.4533 176.189 95.4491 176.269 95.4744 176.341C95.4996 176.412 95.5523 176.472 95.6209 176.505L98.1747 177.73C98.2432 177.764 98.3221 177.768 98.3938 177.743C98.4656 177.717 98.5243 177.664 98.5572 177.595L98.565 177.579ZM49.5667 178.283C49.5318 178.211 49.4697 178.156 49.3941 178.13C49.3185 178.102 49.2356 178.107 49.1635 178.143L46.6032 179.382C46.5674 179.399 46.5356 179.424 46.5092 179.454C46.4828 179.483 46.4625 179.518 46.4495 179.556C46.4364 179.593 46.4309 179.633 46.4332 179.673C46.4355 179.712 46.4455 179.751 46.4628 179.787L46.468 179.798C46.5028 179.87 46.5649 179.926 46.6405 179.952C46.7161 179.978 46.7991 179.973 46.8712 179.939L49.4315 178.698C49.4672 178.681 49.4991 178.657 49.5255 178.626C49.5518 178.597 49.5722 178.563 49.5852 178.525C49.5982 178.487 49.6037 178.448 49.6015 178.408C49.5992 178.368 49.5891 178.33 49.5719 178.294L49.5667 178.283ZM97.545 179.78C97.561 179.747 97.5703 179.712 97.5724 179.676C97.5746 179.639 97.5696 179.602 97.5577 179.568C97.5457 179.534 97.5271 179.501 97.5029 179.474C97.4787 179.447 97.4493 179.425 97.4165 179.409L94.7661 178.118C94.6998 178.086 94.6235 178.082 94.5538 178.106C94.4843 178.131 94.427 178.181 94.3949 178.247L94.387 178.264C94.3711 178.297 94.3617 178.332 94.3596 178.369C94.3574 178.406 94.3624 178.442 94.3744 178.476C94.3863 178.512 94.4048 178.543 94.4291 178.57C94.4533 178.597 94.4827 178.62 94.5155 178.636L97.166 179.926C97.2322 179.958 97.3085 179.962 97.3782 179.938C97.4477 179.915 97.505 179.863 97.5371 179.797L97.545 179.78ZM50.5809 180.45C50.5637 180.415 50.5398 180.384 50.5105 180.358C50.4813 180.333 50.4473 180.313 50.4105 180.301C50.3738 180.288 50.3349 180.283 50.2961 180.285C50.2573 180.288 50.2195 180.299 50.1846 180.316L47.6568 181.567C47.6221 181.585 47.5909 181.609 47.5653 181.638C47.5397 181.667 47.5202 181.701 47.5077 181.738C47.4953 181.775 47.4901 181.814 47.4927 181.853C47.4953 181.892 47.5054 181.929 47.5227 181.965L47.5307 181.981C47.5479 182.016 47.5719 182.047 47.6011 182.072C47.6303 182.099 47.6643 182.118 47.7011 182.131C47.7379 182.143 47.7768 182.148 47.8156 182.145C47.8543 182.143 47.8922 182.133 47.927 182.116L50.4548 180.863C50.4897 180.846 50.5207 180.823 50.5463 180.793C50.5719 180.763 50.5915 180.73 50.604 180.693C50.6164 180.656 50.6215 180.617 50.6189 180.578C50.6164 180.539 50.6062 180.501 50.5889 180.466L50.5809 180.45ZM96.4816 181.973C96.5152 181.905 96.5209 181.827 96.4971 181.756C96.4733 181.684 96.4222 181.625 96.3549 181.591L93.8013 180.31C93.734 180.276 93.6561 180.27 93.5846 180.294C93.5133 180.318 93.4542 180.369 93.4206 180.437L93.4097 180.458C93.376 180.525 93.3704 180.604 93.3942 180.675C93.4179 180.747 93.469 180.806 93.5364 180.84L96.0899 182.122C96.1572 182.155 96.2351 182.161 96.3066 182.137C96.378 182.113 96.437 182.061 96.4707 181.995L96.4816 181.973ZM50.6528 182.756C50.0208 183.082 49.5398 183.373 49.2098 183.627C48.928 183.844 48.9653 183.945 49.3214 183.929C49.8206 183.907 50.3841 183.689 51.012 183.276C51.0966 183.219 51.1459 183.141 51.16 183.04C51.178 182.899 51.155 182.761 51.0906 182.626C51.0543 182.546 50.9979 182.526 50.9214 182.564C50.9034 182.574 50.8711 182.596 50.8249 182.632C50.7302 182.702 50.6729 182.744 50.6528 182.756ZM93.3637 182.747C93.3436 182.735 93.2882 182.693 93.1977 182.623C93.1534 182.587 93.1222 182.565 93.1041 182.555C93.0316 182.517 92.9763 182.536 92.9381 182.614C92.8737 182.745 92.8495 182.879 92.8656 183.016C92.8777 183.115 92.924 183.192 93.0045 183.249C93.6102 183.662 94.1567 183.884 94.6437 183.914C94.9899 183.936 95.0271 183.838 94.7555 183.62C94.4394 183.369 93.9756 183.077 93.3637 182.747Z" fill="url(#paint2_linear_44_6369)" fill-opacity="0.75"/>
        <path d="M34.4811 141.844L27.6189 144.978C27.537 145.015 27.5008 145.112 27.5381 145.194L27.7685 145.7C27.8058 145.783 27.9026 145.819 27.9844 145.781L34.8466 142.647C34.9286 142.61 34.9646 142.513 34.9274 142.431L34.697 141.925C34.6597 141.842 34.563 141.806 34.4811 141.844Z" fill="url(#paint3_linear_44_6369)" fill-opacity="0.75"/>
        <path d="M116.361 144.965L109.52 141.842C109.43 141.801 109.326 141.84 109.284 141.93L109.067 142.41C109.026 142.499 109.066 142.605 109.155 142.645L115.995 145.77C116.084 145.81 116.19 145.771 116.231 145.681L116.448 145.202C116.49 145.113 116.45 145.007 116.361 144.965Z" fill="url(#paint4_linear_44_6369)" fill-opacity="0.75"/>
        <path d="M34.1406 143.282L28.9488 145.654C28.8653 145.691 28.8285 145.79 28.8665 145.874L30.9146 150.378C30.9526 150.461 31.0511 150.498 31.1346 150.459L36.3265 148.089C36.41 148.051 36.4468 147.952 36.4088 147.868L34.3607 143.365C34.3226 143.281 34.2241 143.244 34.1406 143.282Z" fill="url(#paint5_linear_44_6369)" fill-opacity="0.75"/>
        <path d="M115.064 145.658L109.85 143.277C109.772 143.241 109.678 143.275 109.643 143.355L107.587 147.875C107.55 147.954 107.586 148.048 107.664 148.083L112.878 150.464C112.958 150.501 113.05 150.465 113.087 150.387L115.142 145.867C115.178 145.787 115.143 145.694 115.064 145.658Z" fill="url(#paint6_linear_44_6369)" fill-opacity="0.75"/>
        <path d="M35.7593 148.994L32.4464 150.507C32.3751 150.54 32.3436 150.624 32.3761 150.695L41.6027 170.984C41.6351 171.055 41.7193 171.087 41.7906 171.054L45.1035 169.54C45.1749 169.508 45.2063 169.424 45.1738 169.353L35.9473 149.064C35.9148 148.993 35.8307 148.962 35.7593 148.994Z" fill="url(#paint7_linear_44_6369)" fill-opacity="0.75"/>
        <path d="M111.529 150.494L108.224 148.991C108.149 148.958 108.062 148.991 108.029 149.066L98.8424 169.358C98.8086 169.433 98.8416 169.52 98.9159 169.555L102.22 171.056C102.295 171.091 102.383 171.057 102.416 170.983L111.602 150.69C111.637 150.616 111.603 150.527 111.529 150.494Z" fill="url(#paint8_linear_44_6369)" fill-opacity="0.75"/>
        <path d="M47.3053 160.751L46.6502 159.921C46.6326 159.899 46.623 159.871 46.623 159.843V154.207C46.623 154.18 46.6312 154.154 46.6465 154.133C46.6617 154.112 46.6834 154.096 46.7083 154.087C46.7332 154.078 46.7602 154.078 46.7855 154.085C46.8108 154.092 46.8332 154.108 46.8494 154.128L47.5045 154.958C47.5222 154.98 47.5317 155.007 47.5317 155.036V160.671C47.5317 160.698 47.5235 160.724 47.5083 160.746C47.4929 160.767 47.4714 160.783 47.4465 160.792C47.4216 160.8 47.3946 160.801 47.3693 160.794C47.344 160.786 47.3216 160.771 47.3053 160.751Z" fill="url(#paint9_linear_44_6369)" fill-opacity="0.75"/>
        <path d="M96.4804 155.011L97.0601 154.201C97.0817 154.17 97.1124 154.148 97.1475 154.136C97.1827 154.125 97.2207 154.125 97.2559 154.136C97.2911 154.148 97.3218 154.17 97.3436 154.201C97.3653 154.23 97.377 154.266 97.377 154.303V159.791C97.377 159.828 97.3654 159.864 97.3439 159.894L96.7642 160.704C96.7425 160.735 96.7118 160.757 96.6767 160.769C96.6415 160.78 96.6036 160.78 96.5684 160.769C96.5331 160.758 96.5025 160.735 96.4807 160.705C96.459 160.675 96.4473 160.639 96.4473 160.602V155.114C96.4473 155.077 96.4589 155.041 96.4804 155.011Z" fill="url(#paint10_linear_44_6369)" fill-opacity="0.75"/>
        <path d="M94.3523 157.359L95.6595 155.862C95.6743 155.844 95.6942 155.832 95.7162 155.826C95.7381 155.82 95.7614 155.822 95.7828 155.829C95.8041 155.837 95.8225 155.852 95.8355 155.871C95.8486 155.889 95.8557 155.911 95.8558 155.934V161.606C95.8557 161.633 95.846 161.659 95.8285 161.679L94.5214 163.177C94.5065 163.194 94.4868 163.206 94.4648 163.212C94.4427 163.217 94.4195 163.216 94.3982 163.208C94.3769 163.2 94.3585 163.186 94.3454 163.168C94.3324 163.149 94.3253 163.126 94.3252 163.104V157.432C94.3253 157.405 94.335 157.379 94.3523 157.359Z" fill="url(#paint11_linear_44_6369)" fill-opacity="0.75"/>
        <path d="M48.4017 155.928L49.6274 157.325C49.6489 157.35 49.6607 157.382 49.6606 157.416V163.009C49.6607 163.039 49.652 163.066 49.6358 163.089C49.6197 163.113 49.5966 163.13 49.57 163.14C49.5433 163.151 49.5142 163.152 49.4867 163.144C49.4592 163.137 49.4345 163.122 49.4161 163.1L48.1904 161.703C48.1688 161.678 48.157 161.646 48.1572 161.613V156.019C48.1571 155.99 48.1657 155.962 48.1819 155.939C48.1982 155.915 48.2211 155.898 48.2478 155.888C48.2744 155.878 48.3036 155.877 48.3311 155.884C48.3586 155.891 48.3833 155.906 48.4017 155.928Z" fill="url(#paint12_linear_44_6369)" fill-opacity="0.75"/>
        <path d="M35.1634 89.5974L36.0509 89.8515C35.9363 89.9544 36.044 89.9857 36.374 89.9453L38.3303 90.4323C38.457 90.5856 38.7076 90.636 39.0819 90.5836L40.7665 90.989C40.9737 91.1786 41.2183 91.2301 41.5 91.1433L42.3272 91.3762C42.4238 91.4811 42.5747 91.5043 42.78 91.4459L43.3386 91.594C44.1777 93.5624 44.1093 95.3504 43.1333 96.9577C41.965 98.8818 39.9816 99.8893 37.7416 99.6565C34.6744 99.342 32.5008 96.6642 32.8178 93.5574C32.9969 91.7745 33.7788 90.4545 35.1634 89.5974Z" fill="#E11D24"/>
        <g filter="url(#filter0_d_44_6369)">
            <path d="M108.891 89.5886C109.881 90.2763 110.564 91.1737 110.937 92.281C111.293 93.3277 111.337 94.3926 111.068 95.4755C110.593 97.3814 109.363 98.6954 107.382 99.4176C106.46 99.7543 105.493 99.8107 104.483 99.587C103.593 99.3894 102.77 98.9596 102.011 98.2981C100.03 96.5697 99.5805 94.3301 100.661 91.5791L101.344 91.4219C101.543 91.5206 101.726 91.4934 101.893 91.3401C102.08 91.2393 102.301 91.1778 102.554 91.1556C102.808 91.2262 103.035 91.1808 103.236 91.0195C103.41 90.9247 103.607 90.8682 103.831 90.8501C104.067 90.8743 104.274 90.8188 104.456 90.6837L106.394 90.236C106.65 90.3086 106.855 90.2703 107.01 90.121C107.207 90.008 107.432 89.9395 107.686 89.9153C107.902 89.9879 108.077 89.9566 108.214 89.8215C108.335 89.7308 108.561 89.6532 108.891 89.5886Z" fill="#E11D24"/>
        </g>
    </g>
    <defs>
        <filter id="filter0_d_44_6369" x="65.4889" y="53.9886" width="80.3523" height="79.3324" filterUnits="userSpaceOnUse" color-interpolation-filters="sRGB">
            <feFlood flood-opacity="0" result="BackgroundImageFix"/>
            <feColorMatrix in="SourceAlpha" type="matrix" values="0 0 0 0 0 0 0 0 0 0 0 0 0 0 0 0 0 0 127 0" result="hardAlpha"/>
            <feOffset dy="-1"/>
            <feGaussianBlur stdDeviation="17.3"/>
            <feComposite in2="hardAlpha" operator="out"/>
            <feColorMatrix type="matrix" values="0 0 0 0 1 0 0 0 0 0.0366666 0 0 0 0 0.0366666 0 0 0 1 0"/>
            <feBlend mode="normal" in2="BackgroundImageFix" result="effect1_dropShadow_44_6369"/>
            <feBlend mode="normal" in="SourceGraphic" in2="effect1_dropShadow_44_6369" result="shape"/>
        </filter>
        <linearGradient id="paint0_linear_44_6369" x1="72" y1="54" x2="72" y2="161.091" gradientUnits="userSpaceOnUse">
            <stop stop-color="#8E8E8E"/>
            <stop offset="0.5" stop-color="#ADA4A4"/>
            <stop offset="1" stop-color="#7E7A7A"/>
        </linearGradient>
        <linearGradient id="paint1_linear_44_6369" x1="71.997" y1="99.719" x2="71.997" y2="134.806" gradientUnits="userSpaceOnUse">
            <stop stop-color="#8E8E8E"/>
            <stop offset="0.5" stop-color="#ADA4A4"/>
            <stop offset="1" stop-color="#7E7A7A"/>
        </linearGradient>
        <linearGradient id="paint2_linear_44_6369" x1="71.972" y1="132.415" x2="71.972" y2="198.931" gradientUnits="userSpaceOnUse">
            <stop stop-color="#8E8E8E"/>
            <stop offset="0.5" stop-color="#ADA4A4"/>
            <stop offset="1" stop-color="#7E7A7A"/>
        </linearGradient>
        <linearGradient id="paint3_linear_44_6369" x1="31.05" y1="143.41" x2="31.4168" y2="144.214" gradientUnits="userSpaceOnUse">
            <stop stop-color="#8E8E8E"/>
            <stop offset="0.5" stop-color="#ADA4A4"/>
            <stop offset="1" stop-color="#7E7A7A"/>
        </linearGradient>
        <linearGradient id="paint4_linear_44_6369" x1="112.941" y1="143.403" x2="112.574" y2="144.207" gradientUnits="userSpaceOnUse">
            <stop stop-color="#8E8E8E"/>
            <stop offset="0.5" stop-color="#ADA4A4"/>
            <stop offset="1" stop-color="#7E7A7A"/>
        </linearGradient>
        <linearGradient id="paint5_linear_44_6369" x1="31.5448" y1="144.468" x2="33.7381" y2="149.271" gradientUnits="userSpaceOnUse">
            <stop stop-color="#8E8E8E"/>
            <stop offset="0.5" stop-color="#ADA4A4"/>
            <stop offset="1" stop-color="#7E7A7A"/>
        </linearGradient>
        <linearGradient id="paint6_linear_44_6369" x1="112.457" y1="144.468" x2="110.263" y2="149.27" gradientUnits="userSpaceOnUse">
            <stop stop-color="#8E8E8E"/>
            <stop offset="0.5" stop-color="#ADA4A4"/>
            <stop offset="1" stop-color="#7E7A7A"/>
        </linearGradient>
        <linearGradient id="paint7_linear_44_6369" x1="34.1029" y1="149.751" x2="43.4795" y2="170.282" gradientUnits="userSpaceOnUse">
            <stop stop-color="#8E8E8E"/>
            <stop offset="0.5" stop-color="#ADA4A4"/>
            <stop offset="1" stop-color="#7E7A7A"/>
        </linearGradient>
        <linearGradient id="paint8_linear_44_6369" x1="109.877" y1="149.743" x2="100.536" y2="170.291" gradientUnits="userSpaceOnUse">
            <stop stop-color="#8E8E8E"/>
            <stop offset="0.5" stop-color="#ADA4A4"/>
            <stop offset="1" stop-color="#7E7A7A"/>
        </linearGradient>
        <linearGradient id="paint9_linear_44_6369" x1="47.0774" y1="154.08" x2="47.0774" y2="160.799" gradientUnits="userSpaceOnUse">
            <stop stop-color="#8E8E8E"/>
            <stop offset="0.5" stop-color="#ADA4A4"/>
            <stop offset="1" stop-color="#7E7A7A"/>
        </linearGradient>
        <linearGradient id="paint10_linear_44_6369" x1="96.9121" y1="154.128" x2="96.9121" y2="160.777" gradientUnits="userSpaceOnUse">
            <stop stop-color="#8E8E8E"/>
            <stop offset="0.5" stop-color="#ADA4A4"/>
            <stop offset="1" stop-color="#7E7A7A"/>
        </linearGradient>
        <linearGradient id="paint11_linear_44_6369" x1="95.0905" y1="155.823" x2="95.0905" y2="163.215" gradientUnits="userSpaceOnUse">
            <stop stop-color="#8E8E8E"/>
            <stop offset="0.5" stop-color="#ADA4A4"/>
            <stop offset="1" stop-color="#7E7A7A"/>
        </linearGradient>
        <linearGradient id="paint12_linear_44_6369" x1="48.9089" y1="155.879" x2="48.9089" y2="163.15" gradientUnits="userSpaceOnUse">
            <stop stop-color="#8E8E8E"/>
            <stop offset="0.5" stop-color="#ADA4A4"/>
            <stop offset="1" stop-color="#7E7A7A"/>
        </linearGradient>
        <clipPath id="clip0_44_6369">
            <rect width="144" height="199" fill="white"/>
        </clipPath>
    </defs>
</svg>
